<svg id="Capa_1" data-name="Capa 1" xmlns="http://www.w3.org/2000/svg" viewBox="0 0 726.44 223.56"><defs><style>.cls-1{fill:#fff;}</style></defs><path class="cls-1" d="M46.86,174.86a28.47,28.47,0,0,1-16-6.19c-7.65-6.36-11.75-16.69-11.56-26.32.37-25.12,11-46.27,28-65.71a77.73,77.73,0,0,1,12.5-11.87c8-6.37,17.53-10.5,28.16-10.5a49.21,49.21,0,0,1,28.73,9.12c9.7,7,14.37,18.41,14.37,29.42a46.45,46.45,0,0,1-5,20.81,128.81,128.81,0,0,1-20.89,29.76c-3.17,3.27-5.41,5.68-8.58,9-3,3.1-5.23,5-7.84,7.91-.37,5.68,1.12,14.62,6.9,18.41a8.5,8.5,0,0,1,2.06,2.92c1.86,3.27-.75,7.4-4.86,8.43-5.78,1.55-10.81-.17-14.92-3.44A66.08,66.08,0,0,1,66.08,175C59.18,175,52.83,175.38,46.86,174.86Zm55-59.17a60.5,60.5,0,0,0,5.78-24.77c0-11-4.48-21-16.79-21-5.41,0-12.13,3.44-18.1,8.77A126.94,126.94,0,0,0,55.82,98c-10.26,14.79-14.37,28.9-14.37,44.9,0,7.22,2.62,17.37,8.77,17.37a19.05,19.05,0,0,0,13.06-5.33,211.06,211.06,0,0,1-.19-21.5,72.87,72.87,0,0,1,2.62-16.52,10.68,10.68,0,0,1,9.51-7.39c4.85-.18,9,2.06,10.45,6.7,1.67,5.16,3.54,11.36,4.66,16.35A79.43,79.43,0,0,0,101.9,115.69Z"/><path class="cls-1" d="M170.17,165.75c-4.48,3.26-8.77,4.81-13.06,4.81s-8.77-2.23-13.06-5.16a31.9,31.9,0,0,1-8.58-9.11c-3-4.65-4.47-10.84-4.47-17.38,0-10.32,3.91-21.5,12.68-29.24,3.36-2.93,6.9-5.34,11.57-5.34a13.58,13.58,0,0,1,7.09,1.72c3.35,1.9,4.29,5.51,2.23,8.43-2.61,5-5,9.64-7.64,14.45-1.5,2.93-5.79,11.53-5.79,17.55,0,3.44,1.49,5.85,5.41,5.85,8.21,0,16.23-8.09,21.46-15.83,3.73-5.67,7.27-11.52,10.82-17,2-3.27,4.1-4.64,8.39-4.64,3.92,0,8.39,1.2,11.19,3.27,1.87,1.37,3.17,3.61,2.61,5.85-1.11,4.47-2.42,9.11-3.73,13.76-1.49,5.33-1.68,10.15,2.62,13.93.74.69,1.67,1.38,2.79,2.24,1.68,1.2,1.68,3.44.56,5.16a7.25,7.25,0,0,1-4.85,3.09,10.53,10.53,0,0,1-6.53-.34,36.51,36.51,0,0,1-5.78-3.1c-3-1.89-6-3.95-9.33-6.36C181.55,156.8,176,161.62,170.17,165.75Z"/><path class="cls-1" d="M261,183.12a38.52,38.52,0,0,1-9.7,1.21c-9.33,0-16.79-2.76-23.69-9.47-4.11-4-5.6-10.83-5.79-16.34-.37-8.94,1.31-17.55,4.67-27s8.39-18.4,15.29-24.77c6.35-5.85,14-9.63,22.76-9.63a32.37,32.37,0,0,1,14.37,3.27c6.34,3.27,8.95,8.43,8.95,14.79,0,2.75-.93,5.33-3.17,8.26A55.15,55.15,0,0,1,273,135a94.1,94.1,0,0,1-17,9.81,123.12,123.12,0,0,1-11.56,4.82,31.55,31.55,0,0,0-2.06,7.22,48.27,48.27,0,0,0-.74,8.95,5.69,5.69,0,0,0,6,6.36c4.1,0,9.14-2.41,12.5-4.47a246.26,246.26,0,0,0,25.18-17.55c1.31-1,2.24-1.89,3.17-2.75,1.31-1,5-3.61,7.46-1.2,1.49,1.54,1.31,4,.94,5.67a14.1,14.1,0,0,1-2.62,6,90.6,90.6,0,0,1-16.23,17A42.58,42.58,0,0,1,261,183.12Zm4.85-71.05a27.2,27.2,0,0,0-6.9,4.65,42.86,42.86,0,0,0-6.72,8.77,14.68,14.68,0,0,0-1.68,4.47,9.19,9.19,0,0,0,4.29-.51,28.63,28.63,0,0,0,10.26-5.85,24.32,24.32,0,0,0,6.16-8.26c.37-1,.18-2.92-.56-3.44C269.6,111,267.36,111.39,265.87,112.07Z"/><path class="cls-1" d="M354.66,121.54c2.62.51,6.16,1.37,5.23,4.3-.56,2.06-3.36,4.12-6,5a100.67,100.67,0,0,1-12.87,2.75c-4.29.69-8.77,1.2-13.06,1.72-10.82,1.37-15.49,7.4-17.54,16a38.92,38.92,0,0,0-1.12,8.6c0,3.27.56,6.54,3,8.77a9.28,9.28,0,0,0,6.34,2.41A35.3,35.3,0,0,0,329.85,169c3.18-1,4.85-1.72,7.65-2.57,2.24-.69,4.67-.52,6.16,1.54a6.73,6.73,0,0,1,1.3,3.79c0,2.23-1.67,4.47-3.54,6a30,30,0,0,1-19.21,6.88,31.81,31.81,0,0,1-22.76-8.94c-5.79-5.68-9.52-13.6-9.52-21.34a68,68,0,0,1,1.87-15.31c-2.24-2.41-4.11-4.47-6.16-6.71-1.49-1.54-2.61-3.26-2.24-5.33a3.67,3.67,0,0,1,2.43-3.09,26.28,26.28,0,0,1,5-1.21,73.17,73.17,0,0,0,9.52-1.55c3.17-3.78,5.41-6.53,8-9.8a37.33,37.33,0,0,0,2.61-4.13,51.23,51.23,0,0,1-6.34-3.1,40.63,40.63,0,0,1-8.21-6.36c-2.24-2.07-3.36-5.51-1.3-7.92a4.65,4.65,0,0,1,5.78-.86,33.66,33.66,0,0,0,17.35,5.16c4.66,0,9.14-1.37,14.18-3.09a20.93,20.93,0,0,1,6.71-1.21c4.48,0,8.77,1.55,8.77,5.85,0,1.89-1.31,3.27-2.43,4.3a90.55,90.55,0,0,0-7.27,9.12,64,64,0,0,0-4.85,8.6C340.3,118.78,348.32,120.16,354.66,121.54Z"/><path class="cls-1" d="M429.09,153.19c-1.67,3.27-2.61,7.91,0,10.32,1.68,1.55,4.48,1.72,6.35,1.72a48.08,48.08,0,0,0,13.8-2.24c3.36-1,7.84-2.58,9.7-.51a4.57,4.57,0,0,1-.93,6.36c-6.9,5.34-14,8.26-23.13,8.43-8.58.18-15.86-3.27-21.64-8.6a37,37,0,0,1-7.84-11c-3.35,2.41-4.85,3.79-7.27,5.33a118,118,0,0,1-13.06,7.57c-7.65,3.62-15.3,4.3-22.39-1.37-7.27-5.85-7.27-13.08-4.85-20.47a71.27,71.27,0,0,1,18.47-27.36c9-8.25,19.59-15.13,32.09-15.48,6.53,0,12.5.86,16.23,4.13a10.26,10.26,0,0,1,3.54,5.68c.93,4.64,4.85,7.57,7.84,11.52,3.54,5.16,2.8,7.92.56,12C434.13,143.9,431.52,148.37,429.09,153.19Zm-48.5,4.47a106.42,106.42,0,0,0,18.47-13.42c4.85-4.3,9.51-8.6,14-13.24,2.43-2.24,3.55-5.16,1.31-7.23-1.49-1.72-4.11-1.89-7.09-.69a64.75,64.75,0,0,0-18.1,11.19,63.25,63.25,0,0,0-14.36,19.09c-.75,1.38-1.12,4.13.75,5.16C377.23,159.38,379.47,158.35,380.59,157.66Z"/><path class="cls-1" d="M522.55,75.78a135,135,0,0,1,10.82-20.3,34,34,0,0,1,10.45-10.32c3-1.89,6.72-2.41,10.45-2.24a17.16,17.16,0,0,1,8.39,3.27,12.92,12.92,0,0,1,5.78,10.66A11.67,11.67,0,0,1,567,62.36c-.93,1.72-1.68,3.44-2.61,5.16a496.82,496.82,0,0,0-25,60c-6.53,19.95-9.7,35.09-9.7,56.08,0,4.47,1.12,11-4.85,12-6.71,1.2-11.56-4.47-14-8.6a50.32,50.32,0,0,1-6.9-19.27A183.28,183.28,0,0,1,502,143.56c-5.59,5.5-10.44,10.49-16.23,15.48q-6.15,5.16-12.31,9.8a14.42,14.42,0,0,1-8.21,2.58c-12.87,0-19.4-13.07-19.4-23.91,0-12.9,6.16-23.56,17.54-32a19.28,19.28,0,0,1,14.74-3.61c8.58,1.38,17.16,3.27,27.6,5.16C511.73,102.44,516.77,89,522.55,75.78Zm-41,73.28a139.69,139.69,0,0,0,12.13-13.59c1.49-1.72.37-5.51-1.87-7.74a6.47,6.47,0,0,0-7.27-1,30.77,30.77,0,0,0-8.77,6.53c-4.29,4.65-8,9.12-9.89,15.31-.74,2.24-1.49,5.51,0,7.75a3.6,3.6,0,0,0,3,1.54C472.19,157.83,479.65,151,481.51,149.06Z"/><path class="cls-1" d="M624.41,153.19c-1.68,3.27-2.62,7.91,0,10.32,1.68,1.55,4.47,1.72,6.34,1.72a48.08,48.08,0,0,0,13.8-2.24c3.36-1,7.84-2.58,9.7-.51a4.57,4.57,0,0,1-.93,6.36c-6.9,5.34-14,8.26-23.13,8.43-8.58.18-15.86-3.27-21.64-8.6a37,37,0,0,1-7.84-11c-3.35,2.41-4.85,3.79-7.27,5.33a118,118,0,0,1-13.06,7.57c-7.65,3.62-15.3,4.3-22.38-1.37-7.28-5.85-7.28-13.08-4.86-20.47a71.27,71.27,0,0,1,18.47-27.36c9-8.25,19.59-15.13,32.09-15.48,6.53,0,12.5.86,16.23,4.13a10.26,10.26,0,0,1,3.54,5.68c.94,4.64,4.85,7.57,7.84,11.52,3.54,5.16,2.8,7.92.56,12C629.44,143.9,626.83,148.37,624.41,153.19Zm-48.51,4.47a106,106,0,0,0,18.47-13.42c4.85-4.3,9.52-8.6,14-13.24,2.43-2.24,3.55-5.16,1.31-7.23-1.49-1.72-4.1-1.89-7.09-.69a64.55,64.55,0,0,0-18.09,11.19,63.28,63.28,0,0,0-14.37,19.09c-.75,1.38-1.12,4.13.75,5.16C572.55,159.38,574.78,158.35,575.9,157.66Z"/><path class="cls-1" d="M142.3,41.92h3.86l11.76,27.42,12-27.42h3.86L158.29,77.41h-.77Z"/><path class="cls-1" d="M178.33,40.35a2.67,2.67,0,0,1,2,.82,2.73,2.73,0,0,1,.81,2,2.77,2.77,0,0,1-5.54,0,2.73,2.73,0,0,1,.81-2A2.66,2.66,0,0,1,178.33,40.35Zm-1.68,10.81H180V77.41h-3.38Z"/><path class="cls-1" d="M182.59,51.16h3.59L195,70.29l8.71-19.13h3.61l-12,26.25h-.63Z"/><path class="cls-1" d="M232.58,68.7l2.84,1.49a15.35,15.35,0,0,1-3.23,4.44,12.9,12.9,0,0,1-4.13,2.57,14.34,14.34,0,0,1-5.19.88c-4.29,0-7.63-1.4-10.05-4.21a14.22,14.22,0,0,1-3.62-9.52,14,14,0,0,1,3.07-8.9,12.54,12.54,0,0,1,10.4-5,13,13,0,0,1,10.72,5.09,14.21,14.21,0,0,1,2.9,9H212.67a10.73,10.73,0,0,0,2.92,7.5,9.38,9.38,0,0,0,7,2.92,11.15,11.15,0,0,0,3.9-.7,10.22,10.22,0,0,0,3.22-1.85A16,16,0,0,0,232.58,68.7Zm0-7.07a11.4,11.4,0,0,0-2-4.32,9.15,9.15,0,0,0-3.42-2.6,10.48,10.48,0,0,0-4.47-1,9.63,9.63,0,0,0-6.64,2.48A11.27,11.27,0,0,0,213,61.63Z"/><path class="cls-1" d="M239.33,51.16h3.45V55A11.94,11.94,0,0,1,246,51.61a6.41,6.41,0,0,1,3.57-1.13,6.12,6.12,0,0,1,3,.9l-1.76,2.84a4.81,4.81,0,0,0-1.79-.46,4.9,4.9,0,0,0-3.25,1.39,8.78,8.78,0,0,0-2.39,4.31c-.42,1.49-.63,4.52-.63,9.07v8.88h-3.45Z"/><path class="cls-1" d="M265.92,50.48A13,13,0,0,1,276,54.87a14.09,14.09,0,0,1-.2,19.1,13.88,13.88,0,0,1-19.72,0,14.07,14.07,0,0,1-.21-19.07A13,13,0,0,1,265.92,50.48Zm0,3.31a9.76,9.76,0,0,0-7.24,3.11,10.38,10.38,0,0,0-3,7.53,10.67,10.67,0,0,0,1.38,5.3,9.74,9.74,0,0,0,3.73,3.8,10.59,10.59,0,0,0,10.31,0,9.74,9.74,0,0,0,3.73-3.8,10.67,10.67,0,0,0,1.38-5.3,10.35,10.35,0,0,0-3-7.53A9.75,9.75,0,0,0,265.91,53.79Z"/><path class="cls-1" d="M296.22,41.92h7a16.57,16.57,0,0,1,6.49,1A8,8,0,0,1,313.29,46a8.39,8.39,0,0,1,1.32,4.6,8.26,8.26,0,0,1-1.16,4.31,8.46,8.46,0,0,1-3.38,3.15,13,13,0,0,1,4.26,2.21,8.88,8.88,0,0,1,2.32,3.06,9.25,9.25,0,0,1,.83,3.9,9.54,9.54,0,0,1-3.13,7.22,11.68,11.68,0,0,1-8.38,3h-9.75Zm3.48,3.47V56.76h2a15.83,15.83,0,0,0,5.44-.69,5.82,5.82,0,0,0,2.75-2.17,5.7,5.7,0,0,0,1-3.3,4.66,4.66,0,0,0-1.71-3.82c-1.13-.92-2.94-1.39-5.42-1.39Zm0,14.94v13.6h4.4a15.7,15.7,0,0,0,5.7-.76,6.44,6.44,0,0,0,2.91-2.37,6.14,6.14,0,0,0,1.1-3.5,6.08,6.08,0,0,0-1.55-4.13A7.91,7.91,0,0,0,308,60.76a31.1,31.1,0,0,0-6.31-.43Z"/><path class="cls-1" d="M334.39,50.48a13,13,0,0,1,10.05,4.39,14.09,14.09,0,0,1-.2,19.1,13.88,13.88,0,0,1-19.72,0,14.07,14.07,0,0,1-.21-19.07A13,13,0,0,1,334.39,50.48Zm0,3.31a9.76,9.76,0,0,0-7.24,3.11,10.38,10.38,0,0,0-3,7.53,10.67,10.67,0,0,0,1.38,5.3,9.81,9.81,0,0,0,3.73,3.8,10.59,10.59,0,0,0,10.31,0,9.74,9.74,0,0,0,3.73-3.8,10.67,10.67,0,0,0,1.38-5.3,10.35,10.35,0,0,0-3-7.53A9.75,9.75,0,0,0,334.38,53.79Z"/><path class="cls-1" d="M351.91,51.16h3.37V63.41a25.64,25.64,0,0,0,.49,6.18,6.85,6.85,0,0,0,2.76,3.81,8.43,8.43,0,0,0,4.87,1.4,8.2,8.2,0,0,0,4.8-1.36,7,7,0,0,0,2.72-3.59,25.75,25.75,0,0,0,.5-6.44V51.16h3.45V64q0,5.43-1.26,8.18a9.75,9.75,0,0,1-3.82,4.31,12.08,12.08,0,0,1-6.38,1.55,12.23,12.23,0,0,1-6.4-1.55,9.67,9.67,0,0,1-3.84-4.35c-.84-1.85-1.26-4.65-1.26-8.38Z"/><path class="cls-1" d="M383.34,41.41h3.38v9.75h5.36v2.92h-5.36V77.41h-3.38V54.08h-4.61V51.16h4.61Z"/><path class="cls-1" d="M396.34,40.35a2.65,2.65,0,0,1,2,.82,2.7,2.7,0,0,1,.82,2,2.76,2.76,0,0,1-4.73,2,2.67,2.67,0,0,1-.82-2,2.73,2.73,0,0,1,.82-2A2.63,2.63,0,0,1,396.34,40.35Zm-1.68,10.81H398V77.41h-3.38Z"/><path class="cls-1" d="M429.21,51.16V87h-3.33V72.89a14.48,14.48,0,0,1-4.77,3.89A13.31,13.31,0,0,1,405.82,74a13.54,13.54,0,0,1-3.95-9.83,13.33,13.33,0,0,1,4-9.7,13,13,0,0,1,9.58-4,12.32,12.32,0,0,1,5.85,1.38,13.34,13.34,0,0,1,4.6,4.12V51.16Zm-13.5,2.58a10.19,10.19,0,0,0-9,5.28,10.63,10.63,0,0,0,0,10.6,10.34,10.34,0,0,0,3.82,3.94A10,10,0,0,0,415.69,75a10.59,10.59,0,0,0,5.25-1.4,9.78,9.78,0,0,0,3.82-3.78,10.81,10.81,0,0,0,1.33-5.38,10.44,10.44,0,0,0-3-7.61A9.93,9.93,0,0,0,415.71,53.74Z"/><path class="cls-1" d="M434.37,51.16h3.38V63.41a26.34,26.34,0,0,0,.48,6.18A6.91,6.91,0,0,0,441,73.4a8.41,8.41,0,0,0,4.87,1.4,8.19,8.19,0,0,0,4.79-1.36,6.92,6.92,0,0,0,2.72-3.59,25.1,25.1,0,0,0,.51-6.44V51.16h3.45V64q0,5.43-1.27,8.18a9.67,9.67,0,0,1-3.81,4.31,12.11,12.11,0,0,1-6.38,1.55,12.27,12.27,0,0,1-6.41-1.55,9.59,9.59,0,0,1-3.83-4.35c-.85-1.85-1.27-4.65-1.27-8.38Z"/><path class="cls-1" d="M485,68.7l2.85,1.49a15.18,15.18,0,0,1-3.24,4.44,12.79,12.79,0,0,1-4.13,2.57,14.34,14.34,0,0,1-5.19.88q-6.42,0-10-4.21a14.4,14.4,0,0,1-.56-18.42,12.54,12.54,0,0,1,10.41-5,13,13,0,0,1,10.72,5.09,14.27,14.27,0,0,1,2.9,9H465.06a10.69,10.69,0,0,0,2.92,7.5A9.36,9.36,0,0,0,475,75a11.07,11.07,0,0,0,3.9-.7,10.16,10.16,0,0,0,3.23-1.85A16,16,0,0,0,485,68.7Zm0-7.07a11.25,11.25,0,0,0-2-4.32,9.19,9.19,0,0,0-3.41-2.6,10.48,10.48,0,0,0-4.47-1,9.68,9.68,0,0,0-6.65,2.48,11.26,11.26,0,0,0-3.06,5.43Z"/><ellipse class="cls-1" cx="598.1" cy="86.67" rx="22.5" ry="11.7"/><path class="cls-1" d="M578.1,70.19s6.36-13.52,7-19,26.36-19.6,41.36-22.33c0,0,14.55-2.5,24.32,0,0,0,5.68-1.82,4.32,4.09s-1.7,26-25.68,33c0,0-17.39,7.84-18.07,5.22,0,0,15.23-17.16,17.16-20.45s6.14-9.09-6-7c0,0-10.12,1.65-34.43,25.15C588.1,68.75,580.51,75,578.1,70.19Z"/><path class="cls-1" d="M658.32,82s9.43.57,12.84,3.18-.79,2.5-1.82,2.84-13.75,3.64-19.88,3.41S638.32,91,638.32,91s-7.16.57-1.13,2.73,32.61,5.9,39.77,4.65,24.77-1.93,30.22-6.81c0,0,.2-1.07-2.33-3.67-2.74-2.82-5.28-11.9-38.69-11.56,0,0-27.75.14-34.49,3.3,0,0-2.81,1.61.77,2S658.32,82,658.32,82Z"/></svg>